<mxfile host="Electron" modified="2023-06-21T10:42:23.765Z" agent="Mozilla/5.0 (X11; Linux x86_64) AppleWebKit/537.36 (KHTML, like Gecko) draw.io/21.3.7 Chrome/112.0.5615.204 Electron/24.5.0 Safari/537.36" etag="-TgcoFoA1kIMhiFVnAqf" version="21.3.7" type="device">
  <diagram name="Page-1" id="PEFKd-CeYAFzdIYTPGhx">
    <mxGraphModel dx="880" dy="525" grid="1" gridSize="10" guides="1" tooltips="1" connect="1" arrows="1" fold="1" page="1" pageScale="1" pageWidth="850" pageHeight="1100" math="0" shadow="0">
      <root>
        <mxCell id="0" />
        <mxCell id="1" parent="0" />
        <mxCell id="KcHcM5aG8NOxssEEzIZe-1" value="" style="edgeStyle=segmentEdgeStyle;endArrow=classic;html=1;curved=0;rounded=0;endSize=8;startSize=8;startArrow=classic;startFill=1;" parent="1" edge="1">
          <mxGeometry width="50" height="50" relative="1" as="geometry">
            <mxPoint x="240" y="280" as="sourcePoint" />
            <mxPoint x="40" y="80" as="targetPoint" />
          </mxGeometry>
        </mxCell>
        <mxCell id="KcHcM5aG8NOxssEEzIZe-2" value="" style="edgeStyle=segmentEdgeStyle;endArrow=classic;html=1;curved=0;rounded=0;endSize=8;startSize=8;startArrow=classic;startFill=1;" parent="1" edge="1">
          <mxGeometry width="50" height="50" relative="1" as="geometry">
            <mxPoint x="520" y="280" as="sourcePoint" />
            <mxPoint x="320" y="80" as="targetPoint" />
          </mxGeometry>
        </mxCell>
        <mxCell id="KcHcM5aG8NOxssEEzIZe-3" value="" style="edgeStyle=segmentEdgeStyle;endArrow=classic;html=1;curved=0;rounded=0;endSize=8;startSize=8;startArrow=classic;startFill=1;" parent="1" edge="1">
          <mxGeometry width="50" height="50" relative="1" as="geometry">
            <mxPoint x="800" y="280" as="sourcePoint" />
            <mxPoint x="600" y="80" as="targetPoint" />
          </mxGeometry>
        </mxCell>
        <mxCell id="KcHcM5aG8NOxssEEzIZe-4" value="" style="ellipse;whiteSpace=wrap;html=1;aspect=fixed;fillColor=default;strokeColor=#43AA8B;" parent="1" vertex="1">
          <mxGeometry x="70" y="180" width="10" height="10" as="geometry" />
        </mxCell>
        <mxCell id="KcHcM5aG8NOxssEEzIZe-5" value="" style="ellipse;whiteSpace=wrap;html=1;aspect=fixed;fillColor=default;strokeColor=#43AA8B;" parent="1" vertex="1">
          <mxGeometry x="70" y="200" width="10" height="10" as="geometry" />
        </mxCell>
        <mxCell id="KcHcM5aG8NOxssEEzIZe-6" value="" style="ellipse;whiteSpace=wrap;html=1;aspect=fixed;fillColor=default;strokeColor=#43AA8B;" parent="1" vertex="1">
          <mxGeometry x="110" y="210" width="10" height="10" as="geometry" />
        </mxCell>
        <mxCell id="KcHcM5aG8NOxssEEzIZe-7" value="" style="ellipse;whiteSpace=wrap;html=1;aspect=fixed;fillColor=#43AA8B;strokeColor=#43AA8B;" parent="1" vertex="1">
          <mxGeometry x="90" y="200" width="10" height="10" as="geometry" />
        </mxCell>
        <mxCell id="KcHcM5aG8NOxssEEzIZe-8" value="" style="ellipse;whiteSpace=wrap;html=1;aspect=fixed;fillColor=default;strokeColor=#43AA8B;" parent="1" vertex="1">
          <mxGeometry x="120" y="230" width="10" height="10" as="geometry" />
        </mxCell>
        <mxCell id="KcHcM5aG8NOxssEEzIZe-9" value="" style="ellipse;whiteSpace=wrap;html=1;aspect=fixed;fillColor=default;strokeColor=#43AA8B;" parent="1" vertex="1">
          <mxGeometry x="150" y="210" width="10" height="10" as="geometry" />
        </mxCell>
        <mxCell id="KcHcM5aG8NOxssEEzIZe-10" value="" style="ellipse;whiteSpace=wrap;html=1;aspect=fixed;fillColor=#43AA8B;strokeColor=#43AA8B;" parent="1" vertex="1">
          <mxGeometry x="140" y="230" width="10" height="10" as="geometry" />
        </mxCell>
        <mxCell id="KcHcM5aG8NOxssEEzIZe-11" value="" style="ellipse;whiteSpace=wrap;html=1;aspect=fixed;fillColor=default;strokeColor=#43AA8B;" parent="1" vertex="1">
          <mxGeometry x="150" y="240" width="10" height="10" as="geometry" />
        </mxCell>
        <mxCell id="KcHcM5aG8NOxssEEzIZe-12" value="" style="ellipse;whiteSpace=wrap;html=1;aspect=fixed;fillColor=#43AA8B;strokeColor=#43AA8B;" parent="1" vertex="1">
          <mxGeometry x="110" y="250" width="10" height="10" as="geometry" />
        </mxCell>
        <mxCell id="KcHcM5aG8NOxssEEzIZe-13" value="" style="ellipse;whiteSpace=wrap;html=1;aspect=fixed;fillColor=default;strokeColor=#43AA8B;" parent="1" vertex="1">
          <mxGeometry x="90" y="230" width="10" height="10" as="geometry" />
        </mxCell>
        <mxCell id="KcHcM5aG8NOxssEEzIZe-14" value="" style="ellipse;whiteSpace=wrap;html=1;aspect=fixed;fillColor=#43AA8B;strokeColor=#43AA8B;" parent="1" vertex="1">
          <mxGeometry x="60" y="220" width="10" height="10" as="geometry" />
        </mxCell>
        <mxCell id="KcHcM5aG8NOxssEEzIZe-17" value="" style="ellipse;whiteSpace=wrap;html=1;aspect=fixed;fillColor=#43AA8B;strokeColor=#43AA8B;" parent="1" vertex="1">
          <mxGeometry x="120" y="200" width="10" height="10" as="geometry" />
        </mxCell>
        <mxCell id="KcHcM5aG8NOxssEEzIZe-18" value="" style="ellipse;whiteSpace=wrap;html=1;aspect=fixed;fillColor=default;strokeColor=#43AA8B;" parent="1" vertex="1">
          <mxGeometry x="100" y="180" width="10" height="10" as="geometry" />
        </mxCell>
        <mxCell id="KcHcM5aG8NOxssEEzIZe-19" value="" style="ellipse;whiteSpace=wrap;html=1;aspect=fixed;fillColor=#43AA8B;strokeColor=#43AA8B;" parent="1" vertex="1">
          <mxGeometry x="120" y="170" width="10" height="10" as="geometry" />
        </mxCell>
        <mxCell id="KcHcM5aG8NOxssEEzIZe-20" value="" style="ellipse;whiteSpace=wrap;html=1;aspect=fixed;fillColor=default;strokeColor=#43AA8B;" parent="1" vertex="1">
          <mxGeometry x="60" y="150" width="10" height="10" as="geometry" />
        </mxCell>
        <mxCell id="KcHcM5aG8NOxssEEzIZe-21" value="" style="ellipse;whiteSpace=wrap;html=1;aspect=fixed;fillColor=#43AA8B;strokeColor=#43AA8B;" parent="1" vertex="1">
          <mxGeometry x="80" y="160" width="10" height="10" as="geometry" />
        </mxCell>
        <mxCell id="KcHcM5aG8NOxssEEzIZe-22" value="" style="ellipse;whiteSpace=wrap;html=1;aspect=fixed;fillColor=default;strokeColor=#43AA8B;" parent="1" vertex="1">
          <mxGeometry x="80" y="140" width="10" height="10" as="geometry" />
        </mxCell>
        <mxCell id="KcHcM5aG8NOxssEEzIZe-23" value="" style="ellipse;whiteSpace=wrap;html=1;aspect=fixed;fillColor=default;strokeColor=#43AA8B;" parent="1" vertex="1">
          <mxGeometry x="90" y="150" width="10" height="10" as="geometry" />
        </mxCell>
        <mxCell id="KcHcM5aG8NOxssEEzIZe-26" value="" style="whiteSpace=wrap;html=1;aspect=fixed;strokeColor=#F8961E;" parent="1" vertex="1">
          <mxGeometry x="110" y="100" width="10" height="10" as="geometry" />
        </mxCell>
        <mxCell id="KcHcM5aG8NOxssEEzIZe-27" value="" style="whiteSpace=wrap;html=1;aspect=fixed;strokeColor=#F8961E;" parent="1" vertex="1">
          <mxGeometry x="140" y="150" width="10" height="10" as="geometry" />
        </mxCell>
        <mxCell id="KcHcM5aG8NOxssEEzIZe-28" value="" style="whiteSpace=wrap;html=1;aspect=fixed;strokeColor=#F8961E;" parent="1" vertex="1">
          <mxGeometry x="110" y="130" width="10" height="10" as="geometry" />
        </mxCell>
        <mxCell id="KcHcM5aG8NOxssEEzIZe-31" value="" style="whiteSpace=wrap;html=1;aspect=fixed;strokeColor=#F8961E;fillColor=#F8961E;" parent="1" vertex="1">
          <mxGeometry x="150" y="110" width="10" height="10" as="geometry" />
        </mxCell>
        <mxCell id="KcHcM5aG8NOxssEEzIZe-34" value="" style="whiteSpace=wrap;html=1;aspect=fixed;strokeColor=#F8961E;" parent="1" vertex="1">
          <mxGeometry x="160" y="190" width="10" height="10" as="geometry" />
        </mxCell>
        <mxCell id="KcHcM5aG8NOxssEEzIZe-35" value="" style="whiteSpace=wrap;html=1;aspect=fixed;strokeColor=#F8961E;" parent="1" vertex="1">
          <mxGeometry x="180" y="170" width="10" height="10" as="geometry" />
        </mxCell>
        <mxCell id="KcHcM5aG8NOxssEEzIZe-36" value="" style="whiteSpace=wrap;html=1;aspect=fixed;strokeColor=#F8961E;fillColor=#F8961E;" parent="1" vertex="1">
          <mxGeometry x="180" y="150" width="10" height="10" as="geometry" />
        </mxCell>
        <mxCell id="KcHcM5aG8NOxssEEzIZe-37" value="" style="whiteSpace=wrap;html=1;aspect=fixed;strokeColor=#F8961E;" parent="1" vertex="1">
          <mxGeometry x="210" y="140" width="10" height="10" as="geometry" />
        </mxCell>
        <mxCell id="KcHcM5aG8NOxssEEzIZe-39" value="" style="whiteSpace=wrap;html=1;aspect=fixed;strokeColor=#F8961E;" parent="1" vertex="1">
          <mxGeometry x="180" y="110" width="10" height="10" as="geometry" />
        </mxCell>
        <mxCell id="KcHcM5aG8NOxssEEzIZe-43" value="" style="whiteSpace=wrap;html=1;aspect=fixed;strokeColor=#F8961E;fillColor=#F8961E;" parent="1" vertex="1">
          <mxGeometry x="210" y="200" width="10" height="10" as="geometry" />
        </mxCell>
        <mxCell id="KcHcM5aG8NOxssEEzIZe-44" value="" style="whiteSpace=wrap;html=1;aspect=fixed;strokeColor=#F8961E;fillColor=#F8961E;" parent="1" vertex="1">
          <mxGeometry x="90" y="110" width="10" height="10" as="geometry" />
        </mxCell>
        <mxCell id="KcHcM5aG8NOxssEEzIZe-45" value="" style="ellipse;whiteSpace=wrap;html=1;aspect=fixed;fillColor=default;strokeColor=#43AA8B;" parent="1" vertex="1">
          <mxGeometry x="180" y="230" width="10" height="10" as="geometry" />
        </mxCell>
        <mxCell id="KcHcM5aG8NOxssEEzIZe-46" value="" style="ellipse;whiteSpace=wrap;html=1;aspect=fixed;fillColor=default;strokeColor=#43AA8B;" parent="1" vertex="1">
          <mxGeometry x="140" y="260" width="10" height="10" as="geometry" />
        </mxCell>
        <mxCell id="KcHcM5aG8NOxssEEzIZe-47" value="" style="ellipse;whiteSpace=wrap;html=1;aspect=fixed;fillColor=default;strokeColor=#43AA8B;" parent="1" vertex="1">
          <mxGeometry x="350" y="180" width="10" height="10" as="geometry" />
        </mxCell>
        <mxCell id="KcHcM5aG8NOxssEEzIZe-48" value="" style="ellipse;whiteSpace=wrap;html=1;aspect=fixed;fillColor=default;strokeColor=#43AA8B;" parent="1" vertex="1">
          <mxGeometry x="350" y="200" width="10" height="10" as="geometry" />
        </mxCell>
        <mxCell id="KcHcM5aG8NOxssEEzIZe-49" value="" style="ellipse;whiteSpace=wrap;html=1;aspect=fixed;fillColor=default;strokeColor=#43AA8B;" parent="1" vertex="1">
          <mxGeometry x="390" y="210" width="10" height="10" as="geometry" />
        </mxCell>
        <mxCell id="KcHcM5aG8NOxssEEzIZe-50" value="" style="ellipse;whiteSpace=wrap;html=1;aspect=fixed;fillColor=#43AA8B;strokeColor=#43AA8B;" parent="1" vertex="1">
          <mxGeometry x="370" y="200" width="10" height="10" as="geometry" />
        </mxCell>
        <mxCell id="KcHcM5aG8NOxssEEzIZe-51" value="" style="ellipse;whiteSpace=wrap;html=1;aspect=fixed;fillColor=default;strokeColor=#43AA8B;" parent="1" vertex="1">
          <mxGeometry x="400" y="230" width="10" height="10" as="geometry" />
        </mxCell>
        <mxCell id="KcHcM5aG8NOxssEEzIZe-52" value="" style="ellipse;whiteSpace=wrap;html=1;aspect=fixed;fillColor=default;strokeColor=#43AA8B;" parent="1" vertex="1">
          <mxGeometry x="430" y="210" width="10" height="10" as="geometry" />
        </mxCell>
        <mxCell id="KcHcM5aG8NOxssEEzIZe-53" value="" style="ellipse;whiteSpace=wrap;html=1;aspect=fixed;fillColor=#43AA8B;strokeColor=#43AA8B;" parent="1" vertex="1">
          <mxGeometry x="420" y="230" width="10" height="10" as="geometry" />
        </mxCell>
        <mxCell id="KcHcM5aG8NOxssEEzIZe-54" value="" style="ellipse;whiteSpace=wrap;html=1;aspect=fixed;fillColor=default;strokeColor=#43AA8B;" parent="1" vertex="1">
          <mxGeometry x="430" y="240" width="10" height="10" as="geometry" />
        </mxCell>
        <mxCell id="KcHcM5aG8NOxssEEzIZe-55" value="" style="ellipse;whiteSpace=wrap;html=1;aspect=fixed;fillColor=#43AA8B;strokeColor=#43AA8B;" parent="1" vertex="1">
          <mxGeometry x="390" y="250" width="10" height="10" as="geometry" />
        </mxCell>
        <mxCell id="KcHcM5aG8NOxssEEzIZe-56" value="" style="ellipse;whiteSpace=wrap;html=1;aspect=fixed;fillColor=default;strokeColor=#43AA8B;" parent="1" vertex="1">
          <mxGeometry x="370" y="230" width="10" height="10" as="geometry" />
        </mxCell>
        <mxCell id="KcHcM5aG8NOxssEEzIZe-57" value="" style="ellipse;whiteSpace=wrap;html=1;aspect=fixed;fillColor=#43AA8B;strokeColor=#43AA8B;" parent="1" vertex="1">
          <mxGeometry x="340" y="220" width="10" height="10" as="geometry" />
        </mxCell>
        <mxCell id="KcHcM5aG8NOxssEEzIZe-58" value="" style="ellipse;whiteSpace=wrap;html=1;aspect=fixed;fillColor=#43AA8B;strokeColor=#43AA8B;" parent="1" vertex="1">
          <mxGeometry x="400" y="200" width="10" height="10" as="geometry" />
        </mxCell>
        <mxCell id="KcHcM5aG8NOxssEEzIZe-59" value="" style="ellipse;whiteSpace=wrap;html=1;aspect=fixed;fillColor=default;strokeColor=#43AA8B;" parent="1" vertex="1">
          <mxGeometry x="380" y="180" width="10" height="10" as="geometry" />
        </mxCell>
        <mxCell id="KcHcM5aG8NOxssEEzIZe-60" value="" style="ellipse;whiteSpace=wrap;html=1;aspect=fixed;fillColor=#43AA8B;strokeColor=#43AA8B;" parent="1" vertex="1">
          <mxGeometry x="400" y="170" width="10" height="10" as="geometry" />
        </mxCell>
        <mxCell id="KcHcM5aG8NOxssEEzIZe-61" value="" style="ellipse;whiteSpace=wrap;html=1;aspect=fixed;fillColor=default;strokeColor=#43AA8B;" parent="1" vertex="1">
          <mxGeometry x="340" y="150" width="10" height="10" as="geometry" />
        </mxCell>
        <mxCell id="KcHcM5aG8NOxssEEzIZe-62" value="" style="ellipse;whiteSpace=wrap;html=1;aspect=fixed;fillColor=#43AA8B;strokeColor=#43AA8B;" parent="1" vertex="1">
          <mxGeometry x="360" y="160" width="10" height="10" as="geometry" />
        </mxCell>
        <mxCell id="KcHcM5aG8NOxssEEzIZe-63" value="" style="ellipse;whiteSpace=wrap;html=1;aspect=fixed;fillColor=default;strokeColor=#43AA8B;" parent="1" vertex="1">
          <mxGeometry x="360" y="140" width="10" height="10" as="geometry" />
        </mxCell>
        <mxCell id="KcHcM5aG8NOxssEEzIZe-64" value="" style="ellipse;whiteSpace=wrap;html=1;aspect=fixed;fillColor=default;strokeColor=#43AA8B;" parent="1" vertex="1">
          <mxGeometry x="370" y="150" width="10" height="10" as="geometry" />
        </mxCell>
        <mxCell id="KcHcM5aG8NOxssEEzIZe-65" value="" style="whiteSpace=wrap;html=1;aspect=fixed;strokeColor=#F8961E;" parent="1" vertex="1">
          <mxGeometry x="390" y="100" width="10" height="10" as="geometry" />
        </mxCell>
        <mxCell id="KcHcM5aG8NOxssEEzIZe-66" value="" style="whiteSpace=wrap;html=1;aspect=fixed;strokeColor=#F8961E;" parent="1" vertex="1">
          <mxGeometry x="420" y="150" width="10" height="10" as="geometry" />
        </mxCell>
        <mxCell id="KcHcM5aG8NOxssEEzIZe-67" value="" style="whiteSpace=wrap;html=1;aspect=fixed;strokeColor=#F8961E;" parent="1" vertex="1">
          <mxGeometry x="390" y="130" width="10" height="10" as="geometry" />
        </mxCell>
        <mxCell id="KcHcM5aG8NOxssEEzIZe-68" value="" style="whiteSpace=wrap;html=1;aspect=fixed;strokeColor=#F94144;fillColor=default;dashed=1;fillStyle=auto;" parent="1" vertex="1">
          <mxGeometry x="410" y="130" width="10" height="10" as="geometry" />
        </mxCell>
        <mxCell id="KcHcM5aG8NOxssEEzIZe-69" value="" style="whiteSpace=wrap;html=1;aspect=fixed;strokeColor=#F8961E;fillColor=#F8961E;" parent="1" vertex="1">
          <mxGeometry x="430" y="110" width="10" height="10" as="geometry" />
        </mxCell>
        <mxCell id="KcHcM5aG8NOxssEEzIZe-70" value="" style="whiteSpace=wrap;html=1;aspect=fixed;strokeColor=#F94144;fillColor=default;dashed=1;fillStyle=auto;" parent="1" vertex="1">
          <mxGeometry x="440" y="130" width="10" height="10" as="geometry" />
        </mxCell>
        <mxCell id="KcHcM5aG8NOxssEEzIZe-71" value="" style="whiteSpace=wrap;html=1;aspect=fixed;strokeColor=#F94144;fillColor=default;dashed=1;fillStyle=auto;" parent="1" vertex="1">
          <mxGeometry x="440" y="160" width="10" height="10" as="geometry" />
        </mxCell>
        <mxCell id="KcHcM5aG8NOxssEEzIZe-72" value="" style="whiteSpace=wrap;html=1;aspect=fixed;strokeColor=#F8961E;" parent="1" vertex="1">
          <mxGeometry x="440" y="190" width="10" height="10" as="geometry" />
        </mxCell>
        <mxCell id="KcHcM5aG8NOxssEEzIZe-73" value="" style="whiteSpace=wrap;html=1;aspect=fixed;strokeColor=#F8961E;" parent="1" vertex="1">
          <mxGeometry x="460" y="170" width="10" height="10" as="geometry" />
        </mxCell>
        <mxCell id="KcHcM5aG8NOxssEEzIZe-74" value="" style="whiteSpace=wrap;html=1;aspect=fixed;strokeColor=#F8961E;fillColor=#F8961E;" parent="1" vertex="1">
          <mxGeometry x="460" y="150" width="10" height="10" as="geometry" />
        </mxCell>
        <mxCell id="KcHcM5aG8NOxssEEzIZe-75" value="" style="whiteSpace=wrap;html=1;aspect=fixed;strokeColor=#F8961E;" parent="1" vertex="1">
          <mxGeometry x="490" y="140" width="10" height="10" as="geometry" />
        </mxCell>
        <mxCell id="KcHcM5aG8NOxssEEzIZe-76" value="" style="whiteSpace=wrap;html=1;aspect=fixed;strokeColor=#F94144;fillColor=default;dashed=1;fillStyle=auto;" parent="1" vertex="1">
          <mxGeometry x="470" y="130" width="10" height="10" as="geometry" />
        </mxCell>
        <mxCell id="KcHcM5aG8NOxssEEzIZe-77" value="" style="whiteSpace=wrap;html=1;aspect=fixed;strokeColor=#F8961E;" parent="1" vertex="1">
          <mxGeometry x="460" y="110" width="10" height="10" as="geometry" />
        </mxCell>
        <mxCell id="KcHcM5aG8NOxssEEzIZe-78" value="" style="whiteSpace=wrap;html=1;aspect=fixed;strokeColor=#F8961E;" parent="1" vertex="1">
          <mxGeometry x="480" y="160" width="10" height="10" as="geometry" />
        </mxCell>
        <mxCell id="KcHcM5aG8NOxssEEzIZe-79" value="" style="whiteSpace=wrap;html=1;aspect=fixed;strokeColor=#F94144;fillColor=default;dashed=1;fillStyle=auto;" parent="1" vertex="1">
          <mxGeometry x="480" y="180" width="10" height="10" as="geometry" />
        </mxCell>
        <mxCell id="KcHcM5aG8NOxssEEzIZe-80" value="" style="whiteSpace=wrap;html=1;aspect=fixed;strokeColor=#F94144;fillColor=default;dashed=1;fillStyle=auto;" parent="1" vertex="1">
          <mxGeometry x="470" y="200" width="10" height="10" as="geometry" />
        </mxCell>
        <mxCell id="KcHcM5aG8NOxssEEzIZe-81" value="" style="whiteSpace=wrap;html=1;aspect=fixed;strokeColor=#F8961E;fillColor=#F8961E;" parent="1" vertex="1">
          <mxGeometry x="490" y="200" width="10" height="10" as="geometry" />
        </mxCell>
        <mxCell id="KcHcM5aG8NOxssEEzIZe-82" value="" style="whiteSpace=wrap;html=1;aspect=fixed;strokeColor=#F8961E;fillColor=#F8961E;" parent="1" vertex="1">
          <mxGeometry x="370" y="110" width="10" height="10" as="geometry" />
        </mxCell>
        <mxCell id="KcHcM5aG8NOxssEEzIZe-83" value="" style="ellipse;whiteSpace=wrap;html=1;aspect=fixed;fillColor=default;strokeColor=#43AA8B;" parent="1" vertex="1">
          <mxGeometry x="460" y="230" width="10" height="10" as="geometry" />
        </mxCell>
        <mxCell id="KcHcM5aG8NOxssEEzIZe-84" value="" style="ellipse;whiteSpace=wrap;html=1;aspect=fixed;fillColor=default;strokeColor=#43AA8B;" parent="1" vertex="1">
          <mxGeometry x="420" y="260" width="10" height="10" as="geometry" />
        </mxCell>
        <mxCell id="KcHcM5aG8NOxssEEzIZe-85" value="" style="ellipse;whiteSpace=wrap;html=1;aspect=fixed;fillColor=default;strokeColor=#43AA8B;" parent="1" vertex="1">
          <mxGeometry x="630" y="180" width="10" height="10" as="geometry" />
        </mxCell>
        <mxCell id="KcHcM5aG8NOxssEEzIZe-86" value="" style="ellipse;whiteSpace=wrap;html=1;aspect=fixed;fillColor=default;strokeColor=#43AA8B;" parent="1" vertex="1">
          <mxGeometry x="630" y="200" width="10" height="10" as="geometry" />
        </mxCell>
        <mxCell id="KcHcM5aG8NOxssEEzIZe-87" value="" style="ellipse;whiteSpace=wrap;html=1;aspect=fixed;fillColor=default;strokeColor=#43AA8B;" parent="1" vertex="1">
          <mxGeometry x="670" y="210" width="10" height="10" as="geometry" />
        </mxCell>
        <mxCell id="KcHcM5aG8NOxssEEzIZe-88" value="" style="ellipse;whiteSpace=wrap;html=1;aspect=fixed;fillColor=#43AA8B;strokeColor=#43AA8B;" parent="1" vertex="1">
          <mxGeometry x="650" y="200" width="10" height="10" as="geometry" />
        </mxCell>
        <mxCell id="KcHcM5aG8NOxssEEzIZe-89" value="" style="ellipse;whiteSpace=wrap;html=1;aspect=fixed;fillColor=default;strokeColor=#43AA8B;" parent="1" vertex="1">
          <mxGeometry x="680" y="230" width="10" height="10" as="geometry" />
        </mxCell>
        <mxCell id="KcHcM5aG8NOxssEEzIZe-90" value="" style="ellipse;whiteSpace=wrap;html=1;aspect=fixed;fillColor=default;strokeColor=#43AA8B;" parent="1" vertex="1">
          <mxGeometry x="710" y="210" width="10" height="10" as="geometry" />
        </mxCell>
        <mxCell id="KcHcM5aG8NOxssEEzIZe-91" value="" style="ellipse;whiteSpace=wrap;html=1;aspect=fixed;fillColor=#43AA8B;strokeColor=#43AA8B;" parent="1" vertex="1">
          <mxGeometry x="700" y="230" width="10" height="10" as="geometry" />
        </mxCell>
        <mxCell id="KcHcM5aG8NOxssEEzIZe-92" value="" style="ellipse;whiteSpace=wrap;html=1;aspect=fixed;fillColor=default;strokeColor=#43AA8B;" parent="1" vertex="1">
          <mxGeometry x="710" y="240" width="10" height="10" as="geometry" />
        </mxCell>
        <mxCell id="KcHcM5aG8NOxssEEzIZe-93" value="" style="ellipse;whiteSpace=wrap;html=1;aspect=fixed;fillColor=#43AA8B;strokeColor=#43AA8B;" parent="1" vertex="1">
          <mxGeometry x="670" y="250" width="10" height="10" as="geometry" />
        </mxCell>
        <mxCell id="KcHcM5aG8NOxssEEzIZe-94" value="" style="ellipse;whiteSpace=wrap;html=1;aspect=fixed;fillColor=default;strokeColor=#43AA8B;" parent="1" vertex="1">
          <mxGeometry x="650" y="230" width="10" height="10" as="geometry" />
        </mxCell>
        <mxCell id="KcHcM5aG8NOxssEEzIZe-95" value="" style="ellipse;whiteSpace=wrap;html=1;aspect=fixed;fillColor=#43AA8B;strokeColor=#43AA8B;" parent="1" vertex="1">
          <mxGeometry x="620" y="220" width="10" height="10" as="geometry" />
        </mxCell>
        <mxCell id="KcHcM5aG8NOxssEEzIZe-96" value="" style="ellipse;whiteSpace=wrap;html=1;aspect=fixed;fillColor=#43AA8B;strokeColor=#43AA8B;" parent="1" vertex="1">
          <mxGeometry x="680" y="200" width="10" height="10" as="geometry" />
        </mxCell>
        <mxCell id="KcHcM5aG8NOxssEEzIZe-97" value="" style="ellipse;whiteSpace=wrap;html=1;aspect=fixed;fillColor=default;strokeColor=#43AA8B;" parent="1" vertex="1">
          <mxGeometry x="660" y="180" width="10" height="10" as="geometry" />
        </mxCell>
        <mxCell id="KcHcM5aG8NOxssEEzIZe-98" value="" style="ellipse;whiteSpace=wrap;html=1;aspect=fixed;fillColor=#43AA8B;strokeColor=#43AA8B;" parent="1" vertex="1">
          <mxGeometry x="680" y="170" width="10" height="10" as="geometry" />
        </mxCell>
        <mxCell id="KcHcM5aG8NOxssEEzIZe-99" value="" style="ellipse;whiteSpace=wrap;html=1;aspect=fixed;fillColor=default;strokeColor=#43AA8B;" parent="1" vertex="1">
          <mxGeometry x="620" y="150" width="10" height="10" as="geometry" />
        </mxCell>
        <mxCell id="KcHcM5aG8NOxssEEzIZe-100" value="" style="ellipse;whiteSpace=wrap;html=1;aspect=fixed;fillColor=#43AA8B;strokeColor=#43AA8B;" parent="1" vertex="1">
          <mxGeometry x="640" y="160" width="10" height="10" as="geometry" />
        </mxCell>
        <mxCell id="KcHcM5aG8NOxssEEzIZe-101" value="" style="ellipse;whiteSpace=wrap;html=1;aspect=fixed;fillColor=default;strokeColor=#43AA8B;" parent="1" vertex="1">
          <mxGeometry x="640" y="140" width="10" height="10" as="geometry" />
        </mxCell>
        <mxCell id="KcHcM5aG8NOxssEEzIZe-102" value="" style="ellipse;whiteSpace=wrap;html=1;aspect=fixed;fillColor=default;strokeColor=#43AA8B;" parent="1" vertex="1">
          <mxGeometry x="650" y="150" width="10" height="10" as="geometry" />
        </mxCell>
        <mxCell id="KcHcM5aG8NOxssEEzIZe-103" value="" style="whiteSpace=wrap;html=1;aspect=fixed;strokeColor=#F8961E;" parent="1" vertex="1">
          <mxGeometry x="670" y="100" width="10" height="10" as="geometry" />
        </mxCell>
        <mxCell id="KcHcM5aG8NOxssEEzIZe-104" value="" style="whiteSpace=wrap;html=1;aspect=fixed;strokeColor=#F8961E;" parent="1" vertex="1">
          <mxGeometry x="700" y="150" width="10" height="10" as="geometry" />
        </mxCell>
        <mxCell id="KcHcM5aG8NOxssEEzIZe-105" value="" style="whiteSpace=wrap;html=1;aspect=fixed;strokeColor=#F8961E;fillColor=#F8961E;" parent="1" vertex="1">
          <mxGeometry x="670" y="130" width="10" height="10" as="geometry" />
        </mxCell>
        <mxCell id="KcHcM5aG8NOxssEEzIZe-106" value="" style="whiteSpace=wrap;html=1;aspect=fixed;strokeColor=#F8961E;" parent="1" vertex="1">
          <mxGeometry x="690" y="130" width="10" height="10" as="geometry" />
        </mxCell>
        <mxCell id="KcHcM5aG8NOxssEEzIZe-107" value="" style="whiteSpace=wrap;html=1;aspect=fixed;strokeColor=#F8961E;fillColor=#F8961E;" parent="1" vertex="1">
          <mxGeometry x="710" y="110" width="10" height="10" as="geometry" />
        </mxCell>
        <mxCell id="KcHcM5aG8NOxssEEzIZe-108" value="" style="whiteSpace=wrap;html=1;aspect=fixed;strokeColor=#F8961E;" parent="1" vertex="1">
          <mxGeometry x="720" y="130" width="10" height="10" as="geometry" />
        </mxCell>
        <mxCell id="KcHcM5aG8NOxssEEzIZe-109" value="" style="whiteSpace=wrap;html=1;aspect=fixed;strokeColor=#F8961E;" parent="1" vertex="1">
          <mxGeometry x="720" y="160" width="10" height="10" as="geometry" />
        </mxCell>
        <mxCell id="KcHcM5aG8NOxssEEzIZe-110" value="" style="whiteSpace=wrap;html=1;aspect=fixed;strokeColor=#F8961E;fillColor=#F8961E;" parent="1" vertex="1">
          <mxGeometry x="720" y="190" width="10" height="10" as="geometry" />
        </mxCell>
        <mxCell id="KcHcM5aG8NOxssEEzIZe-111" value="" style="whiteSpace=wrap;html=1;aspect=fixed;strokeColor=#F8961E;" parent="1" vertex="1">
          <mxGeometry x="740" y="170" width="10" height="10" as="geometry" />
        </mxCell>
        <mxCell id="KcHcM5aG8NOxssEEzIZe-112" value="" style="whiteSpace=wrap;html=1;aspect=fixed;strokeColor=#F8961E;fillColor=#F8961E;" parent="1" vertex="1">
          <mxGeometry x="740" y="150" width="10" height="10" as="geometry" />
        </mxCell>
        <mxCell id="KcHcM5aG8NOxssEEzIZe-113" value="" style="whiteSpace=wrap;html=1;aspect=fixed;strokeColor=#F8961E;" parent="1" vertex="1">
          <mxGeometry x="770" y="140" width="10" height="10" as="geometry" />
        </mxCell>
        <mxCell id="KcHcM5aG8NOxssEEzIZe-114" value="" style="whiteSpace=wrap;html=1;aspect=fixed;strokeColor=#F8961E;" parent="1" vertex="1">
          <mxGeometry x="750" y="130" width="10" height="10" as="geometry" />
        </mxCell>
        <mxCell id="KcHcM5aG8NOxssEEzIZe-115" value="" style="whiteSpace=wrap;html=1;aspect=fixed;strokeColor=#F8961E;fillColor=#F8961E;" parent="1" vertex="1">
          <mxGeometry x="740" y="110" width="10" height="10" as="geometry" />
        </mxCell>
        <mxCell id="KcHcM5aG8NOxssEEzIZe-116" value="" style="whiteSpace=wrap;html=1;aspect=fixed;strokeColor=#F8961E;" parent="1" vertex="1">
          <mxGeometry x="760" y="160" width="10" height="10" as="geometry" />
        </mxCell>
        <mxCell id="KcHcM5aG8NOxssEEzIZe-117" value="" style="whiteSpace=wrap;html=1;aspect=fixed;strokeColor=#F8961E;" parent="1" vertex="1">
          <mxGeometry x="760" y="180" width="10" height="10" as="geometry" />
        </mxCell>
        <mxCell id="KcHcM5aG8NOxssEEzIZe-118" value="" style="whiteSpace=wrap;html=1;aspect=fixed;strokeColor=#F8961E;" parent="1" vertex="1">
          <mxGeometry x="750" y="200" width="10" height="10" as="geometry" />
        </mxCell>
        <mxCell id="KcHcM5aG8NOxssEEzIZe-119" value="" style="whiteSpace=wrap;html=1;aspect=fixed;strokeColor=#F8961E;fillColor=#F8961E;" parent="1" vertex="1">
          <mxGeometry x="770" y="200" width="10" height="10" as="geometry" />
        </mxCell>
        <mxCell id="KcHcM5aG8NOxssEEzIZe-120" value="" style="whiteSpace=wrap;html=1;aspect=fixed;strokeColor=#F8961E;fillColor=#F8961E;" parent="1" vertex="1">
          <mxGeometry x="650" y="110" width="10" height="10" as="geometry" />
        </mxCell>
        <mxCell id="KcHcM5aG8NOxssEEzIZe-121" value="" style="ellipse;whiteSpace=wrap;html=1;aspect=fixed;fillColor=default;strokeColor=#43AA8B;" parent="1" vertex="1">
          <mxGeometry x="740" y="230" width="10" height="10" as="geometry" />
        </mxCell>
        <mxCell id="KcHcM5aG8NOxssEEzIZe-122" value="" style="ellipse;whiteSpace=wrap;html=1;aspect=fixed;fillColor=default;strokeColor=#43AA8B;" parent="1" vertex="1">
          <mxGeometry x="700" y="260" width="10" height="10" as="geometry" />
        </mxCell>
        <mxCell id="KcHcM5aG8NOxssEEzIZe-129" value="Desbalanceado" style="text;html=1;strokeColor=none;fillColor=none;align=center;verticalAlign=middle;whiteSpace=wrap;rounded=0;fontStyle=1" parent="1" vertex="1">
          <mxGeometry x="110" y="60" width="60" height="30" as="geometry" />
        </mxCell>
        <mxCell id="KcHcM5aG8NOxssEEzIZe-130" value="SMOTE" style="text;html=1;strokeColor=none;fillColor=none;align=center;verticalAlign=middle;whiteSpace=wrap;rounded=0;fontStyle=1" parent="1" vertex="1">
          <mxGeometry x="390" y="60" width="60" height="30" as="geometry" />
        </mxCell>
        <mxCell id="KcHcM5aG8NOxssEEzIZe-131" value="Balanceado" style="text;html=1;strokeColor=none;fillColor=none;align=center;verticalAlign=middle;whiteSpace=wrap;rounded=0;fontStyle=1" parent="1" vertex="1">
          <mxGeometry x="670" y="60" width="60" height="30" as="geometry" />
        </mxCell>
        <mxCell id="KcHcM5aG8NOxssEEzIZe-132" value="" style="shape=flexArrow;endArrow=classic;html=1;rounded=0;strokeColor=#E6E6E6;fillColor=#E6E6E6;" parent="1" edge="1">
          <mxGeometry width="50" height="50" relative="1" as="geometry">
            <mxPoint x="260" y="180" as="sourcePoint" />
            <mxPoint x="300" y="180" as="targetPoint" />
          </mxGeometry>
        </mxCell>
        <mxCell id="KcHcM5aG8NOxssEEzIZe-133" value="" style="shape=flexArrow;endArrow=classic;html=1;rounded=0;strokeColor=#E6E6E6;fillColor=#E6E6E6;" parent="1" edge="1">
          <mxGeometry width="50" height="50" relative="1" as="geometry">
            <mxPoint x="540" y="179.31" as="sourcePoint" />
            <mxPoint x="580" y="179.31" as="targetPoint" />
          </mxGeometry>
        </mxCell>
        <mxCell id="KcHcM5aG8NOxssEEzIZe-134" value="" style="whiteSpace=wrap;html=1;aspect=fixed;strokeColor=#F8961E;fillColor=none;" parent="1" vertex="1">
          <mxGeometry x="140" y="310" width="10" height="10" as="geometry" />
        </mxCell>
        <mxCell id="KcHcM5aG8NOxssEEzIZe-136" value="" style="ellipse;whiteSpace=wrap;html=1;aspect=fixed;fillColor=none;strokeColor=#43AA8B;" parent="1" vertex="1">
          <mxGeometry x="120" y="310" width="10" height="10" as="geometry" />
        </mxCell>
        <mxCell id="KcHcM5aG8NOxssEEzIZe-137" value="Amostras de treinamento" style="text;html=1;strokeColor=none;fillColor=none;align=left;verticalAlign=middle;whiteSpace=wrap;rounded=0;" parent="1" vertex="1">
          <mxGeometry x="160" y="300" width="150" height="30" as="geometry" />
        </mxCell>
        <mxCell id="KcHcM5aG8NOxssEEzIZe-138" value="" style="whiteSpace=wrap;html=1;aspect=fixed;strokeColor=#F8961E;fillColor=#F8961E;" parent="1" vertex="1">
          <mxGeometry x="360" y="310" width="10" height="10" as="geometry" />
        </mxCell>
        <mxCell id="KcHcM5aG8NOxssEEzIZe-139" value="" style="ellipse;whiteSpace=wrap;html=1;aspect=fixed;fillColor=#43AA8B;strokeColor=#43AA8B;" parent="1" vertex="1">
          <mxGeometry x="340" y="310" width="10" height="10" as="geometry" />
        </mxCell>
        <mxCell id="KcHcM5aG8NOxssEEzIZe-140" value="Amostras de teste" style="text;html=1;strokeColor=none;fillColor=none;align=left;verticalAlign=middle;whiteSpace=wrap;rounded=0;" parent="1" vertex="1">
          <mxGeometry x="380" y="300" width="150" height="30" as="geometry" />
        </mxCell>
        <mxCell id="KcHcM5aG8NOxssEEzIZe-144" value="" style="whiteSpace=wrap;html=1;aspect=fixed;strokeColor=#F94144;fillColor=default;dashed=1;fillStyle=auto;" parent="1" vertex="1">
          <mxGeometry x="520" y="310" width="10" height="10" as="geometry" />
        </mxCell>
        <mxCell id="KcHcM5aG8NOxssEEzIZe-146" value="Amostras de treinamento criadas" style="text;html=1;strokeColor=none;fillColor=none;align=left;verticalAlign=middle;whiteSpace=wrap;rounded=0;" parent="1" vertex="1">
          <mxGeometry x="540" y="300" width="180" height="30" as="geometry" />
        </mxCell>
      </root>
    </mxGraphModel>
  </diagram>
</mxfile>
